<?xml version="1.0" encoding="utf-8"?>
<!-- Generator: Adobe Illustrator 15.0.0, SVG Export Plug-In . SVG Version: 6.00 Build 0)  -->
<!DOCTYPE svg PUBLIC "-//W3C//DTD SVG 1.1//EN" "http://www.w3.org/Graphics/SVG/1.1/DTD/svg11.dtd">
<svg version="1.1" id="Calque_1" xmlns="http://www.w3.org/2000/svg" xmlns:xlink="http://www.w3.org/1999/xlink" x="0px" y="0px"
	 width="316.063px" height="138.379px" viewBox="0 0 316.063 138.379" enable-background="new 0 0 316.063 138.379"
	 xml:space="preserve">
<g>
	<path fill="#E74011" d="M116.75,111.807H70.104c-23.479,0-42.513-19.035-42.513-42.518c0-23.479,19.033-42.511,42.513-42.366
		h95.574l15.519-26.922H69.229C30.951-0.242-0.079,30.79-0.079,69.065c0,38.283,31.029,69.314,69.307,69.314h32.206L116.75,111.807z
		"/>
	<path fill="#3C508F" d="M246.755,0.001h-65.56l-15.519,26.922h82.05c23.48-0.146,42.512,18.888,42.512,42.365
		c0,23.483-19.03,42.519-42.512,42.519H116.75l-15.316,26.571h145.321c38.28,0,69.308-31.03,69.308-69.313
		C316.063,30.79,285.036-0.241,246.755,0.001"/>
	<path fill="#3C508F" d="M44.403,58.798h5.605v-8.78h5.23v8.78h8.967v4.732h-8.967v15.506c0,2.802,1.369,4.421,4.172,4.421
		c1.618,0,3.301-1.184,3.301-1.184l1.931,4.297c-2.492,1.369-4.297,1.744-5.979,1.744c-4.11,0-8.655-2.678-8.655-9.029V63.531
		h-5.605V58.798L44.403,58.798z"/>
	<path fill="#3C508F" d="M87.368,58.798l-1.932,4.732c0,0-1.121-0.622-3.3-0.622c-4.546,0-6.601,4.857-6.601,4.857v19.801h-5.231
		v-28.77h4.858v4.421c0,0,2.553-5.168,8.032-5.168C85.562,58.051,87.368,58.798,87.368,58.798"/>
	<path fill="#3C508F" d="M116.884,73.37c0,0.562,0,0.996-0.063,1.681H93.594c0.312,4.359,4.483,8.408,9.901,8.408
		c5.667,0,8.655-4.234,8.655-4.234l3.301,3.424c0,0-4.359,5.668-11.956,5.668c-8.719,0-15.009-6.602-15.009-15.133
		c0-8.407,5.729-15.131,14.386-15.131C110.905,58.051,116.884,64.091,116.884,73.37 M111.777,70.691
		c-0.186-3.236-3.112-7.783-8.904-7.783c-6.228,0-8.78,4.796-9.153,7.783H111.777z"/>
	<path fill="#3C508F" d="M146.21,82.773c0,0-4.172,5.541-11.77,5.541c-8.469,0-14.82-6.662-14.82-15.131
		c0-8.408,6.352-15.133,14.82-15.133c7.349,0,11.458,5.168,11.458,5.168l-3.55,3.176c0,0-2.802-3.487-7.908-3.487
		c-5.792,0-9.59,4.608-9.59,10.275c0,5.666,3.798,10.273,9.59,10.273c5.604,0,8.406-4.109,8.406-4.109L146.21,82.773z"/>
	<path fill="#3C508F" d="M177.716,73.184c0,8.469-6.351,15.131-14.819,15.131s-14.82-6.662-14.82-15.131
		c0-8.47,6.352-15.133,14.82-15.133C171.366,58.051,177.716,64.714,177.716,73.184 M172.487,73.184
		c0-5.667-3.799-10.275-9.59-10.275c-5.792,0-9.59,4.608-9.59,10.275c0,5.666,3.799,10.273,9.59,10.273
		C168.688,83.458,172.487,78.85,172.487,73.184"/>
	<g>
		<path fill="#384C85" d="M264.742,88.744c-5.891,0-10.165-4.428-10.165-10.525v-12.13h-5.575v-7.388h5.575V50.25h8.105v8.451h8.569
			v7.388h-8.569v10.99c0,2.68,1.096,4.038,3.258,4.038c1.441,0,2.714-0.92,2.728-0.93l0.455-0.334l3.024,6.734l-0.313,0.217
			C271.719,86.884,268.971,88.744,264.742,88.744z"/>
	</g>
</g>
<path fill="#384C85" d="M237.435,58.702v2.826c-1.234-1.38-3.853-3.544-8.114-3.544c-8.02,0-14.301,6.756-14.301,15.381
	c0,8.623,6.281,15.38,14.301,15.38c4.34,0,6.901-2.117,8.114-3.502v2.782h7.566V58.702H237.435z M236.896,77.499
	c-0.348,0.593-2.316,3.618-6.255,3.618c-4.424,0-7.396-3.115-7.396-7.754c0-4.637,2.972-7.753,7.396-7.753
	c3.938,0,5.907,3.026,6.255,3.618V77.499z"/>
<path fill="#384C85" d="M197.498,57.983c-3.879,0-6.377,1.82-7.574,2.978v-19.16h-8.106v46.225h7.567v-2.783
	c1.213,1.385,3.775,3.502,8.113,3.502c8.02,0,14.302-6.756,14.302-15.381C211.799,64.739,205.517,57.983,197.498,57.983z
	 M196.239,81.118c-4.048,0-5.979-3.029-6.314-3.616v-8.276c0.336-0.586,2.268-3.615,6.314-3.615c4.388,0,7.334,3.116,7.334,7.754
	C203.573,78.003,200.625,81.118,196.239,81.118z"/>
</svg>
